<svg width="135" height="142" viewBox="0 0 135 142" fill="none" xmlns="http://www.w3.org/2000/svg">
<g id="Group 191">
<g id="Group 188">
<path id="Vector" d="M132.392 8.21205C110.475 8.07252 89.2471 15.8693 72.6305 30.1621C56.014 44.455 45.1311 64.2783 41.9922 85.9703C41.9633 86.2187 41.9859 86.4704 42.0586 86.7097C42.1314 86.9489 42.2527 87.1706 42.415 87.3609C42.5773 87.5512 42.777 87.7059 43.0018 87.8155C43.2266 87.9251 43.4716 87.9871 43.7215 87.9977C65.6496 88.1532 86.8905 80.3537 103.507 66.0449C120.124 51.736 130.99 31.8881 134.092 10.1799C134.116 9.9377 134.091 9.69308 134.018 9.46096C133.945 9.22884 133.825 9.01409 133.666 8.82988C133.507 8.64567 133.312 8.49587 133.093 8.38963C132.874 8.2834 132.635 8.22297 132.392 8.21205Z" fill="white"/>
<path id="Vector_2" d="M7.40654 0.221409C7.18549 0.101055 6.94187 0.0278911 6.69108 0.00654981C6.44029 -0.0147915 6.18781 0.0161534 5.9496 0.0974251C5.71139 0.178697 5.49264 0.30853 5.30719 0.478703C5.12175 0.648876 4.97364 0.855689 4.87224 1.08605C-1.20825 16.3808 -1.61043 33.3473 3.73855 48.9129C9.08752 64.4786 19.834 77.614 34.0316 85.9403C34.2567 86.0602 34.5042 86.1322 34.7586 86.1518C35.0129 86.1714 35.2685 86.1381 35.5093 86.0541C35.7502 85.9701 35.971 85.8372 36.158 85.6636C36.345 85.4901 36.494 85.2798 36.5957 85.0459C42.6781 69.7528 43.0779 52.7862 37.7226 37.2237C32.3674 21.6611 21.6117 8.53327 7.40654 0.221409Z" fill="white"/>
</g>
<g id="Mask group">
<mask id="mask0_23_414" style="mask-type:alpha" maskUnits="userSpaceOnUse" x="0" y="30" width="112" height="112">
<rect id="Rectangle 70" y="30" width="112" height="112" fill="#D9D9D9"/>
</mask>
<g mask="url(#mask0_23_414)">
<g id="Group">
<path id="Vector_3" d="M31.0313 92.0879H31.0341C31.5628 92.0861 31.9915 91.6565 31.9896 91.1268L31.9681 83.4592C31.9662 82.9314 31.5376 82.5037 31.0097 82.5037H31.0069C30.4782 82.5055 30.0495 82.9351 30.0514 83.4648L30.0729 91.1324C30.0748 91.6602 30.5034 92.0879 31.0313 92.0879Z" fill="#2C3E50"/>
<path id="Vector_4" d="M81.6283 46.202C81.6277 46.005 81.5085 45.5824 81.1482 45.3738C81.1471 45.3731 81.1457 45.3735 81.1445 45.3728L72.1227 40.1301C71.8251 39.957 71.4582 39.957 71.1625 40.1282L30.4792 63.6167C30.1796 63.7902 30.0009 64.1094 30 64.4459C30 64.4466 30.0005 64.4471 30.0005 64.4478C30.0005 64.4485 30 64.449 30 64.4497L30.0374 78.4344C30.0393 78.9622 30.4679 79.3899 30.9958 79.3899C30.9967 79.3899 30.9976 79.3899 30.9986 79.3899C31.5273 79.3881 31.956 78.9585 31.9541 78.4288L31.9213 66.1146L39.0299 70.2453L39.1976 129.373L32.0889 125.242L32.0149 97.1958C32.014 96.668 31.5844 96.2403 31.0566 96.2403C31.0557 96.2403 31.0547 96.2403 31.0538 96.2403C30.525 96.2422 30.0973 96.6718 30.0983 97.2015L30.1741 125.797C30.175 126.138 30.3566 126.452 30.6504 126.622L39.6788 131.87C39.6784 131.87 39.6791 131.87 39.6788 131.87C39.6798 131.87 39.6815 131.872 39.6825 131.873C39.8304 131.958 39.9961 132 40.1608 132C40.3264 132 40.4921 131.957 40.6399 131.872L69.7297 115.077C69.8444 115.01 69.9242 114.908 70.0008 114.805C70.2739 114.441 73.7509 108.372 81.6358 94.829C81.6362 94.8284 81.6359 94.8275 81.6363 94.8269C81.7195 94.6829 81.7654 94.5175 81.765 94.3452L81.6283 46.202ZM71.6398 42.0655L78.7579 46.202L39.988 68.5859L38.8696 67.936L32.8703 64.4497L71.6398 42.0655ZM41.1144 129.384L40.9469 70.2458C49.3405 65.3997 65.1731 56.2588 79.7163 47.8623L79.8464 93.7956L68.7339 100.212C68.4363 100.384 68.2538 100.702 68.2547 101.045L68.2903 113.694L41.1144 129.384ZM70.1989 110.705L70.1733 101.594L78.1722 96.9759L70.1989 110.705Z" fill="#2C3E50"/>
<path id="Vector_5" d="M64.0255 106.808L44.5041 118.078C44.0456 118.343 43.8883 118.928 44.1532 119.387C44.4187 119.847 45.0064 120.001 45.4625 119.738L64.9838 108.468C65.4424 108.203 65.5996 107.618 65.3348 107.159C65.0699 106.699 64.4813 106.543 64.0255 106.808Z" fill="#2C3E50"/>
<path id="Vector_6" d="M45.3193 77.1315L76.4352 59.1675C76.8937 58.9026 77.051 58.3168 76.7861 57.8582C76.5203 57.3977 75.9317 57.2424 75.4768 57.5072L44.3609 75.4713C43.9024 75.7362 43.7451 76.322 44.01 76.7806C44.2755 77.2404 44.8632 77.395 45.3193 77.1315Z" fill="#2C3E50"/>
<g id="Group_2">
<g id="Group_3">
<path id="Vector_7" d="M57.6948 96.7636C55.1972 96.7636 53.3633 96.3436 53.1983 96.3061C52.9396 96.2461 52.7371 96.0398 52.6733 95.781C52.587 95.4135 50.5994 86.7093 55.636 80.904C58.9661 77.0638 64.5352 75.4662 72.1856 76.1563C72.5268 76.1863 72.7931 76.4563 72.8269 76.7975C73.5169 84.4479 71.9193 90.017 68.0791 93.3472C64.8689 96.1261 60.7775 96.7636 57.6948 96.7636ZM53.9634 95.0197C55.7522 95.3385 62.6001 96.2311 67.1603 92.2746C70.5392 89.3419 71.9868 84.3767 71.4693 77.5138C64.6064 76.9963 59.6412 78.4439 56.7085 81.8228C52.7521 86.383 53.6446 93.2309 53.9634 95.0197Z" fill="#2C3E50"/>
</g>
<g id="Group_4">
<path id="Vector_8" d="M49.7074 99.9999C49.5274 99.9999 49.3474 99.9324 49.2086 99.7936C48.9311 99.5198 48.9311 99.0698 49.2049 98.7961L65.9082 82.0289C66.182 81.7514 66.632 81.7514 66.9058 82.0289C67.1833 82.3027 67.1833 82.7527 66.9095 83.0265L50.2062 99.7936C50.0674 99.9324 49.8874 99.9999 49.7074 99.9999Z" fill="#2C3E50"/>
</g>
<g id="Group_5">
<path id="Vector_9" d="M64.0893 92.3909C64.0781 92.3909 64.0668 92.3909 64.0593 92.3909L57.5415 92.1021C57.1777 92.0871 56.889 91.7984 56.8665 91.4346L56.5477 85.6368C56.5252 85.2468 56.8252 84.913 57.2152 84.8943C57.5978 84.8718 57.939 85.1718 57.9578 85.5618L58.239 90.7221L64.1156 90.9808C64.5056 90.9996 64.8056 91.3296 64.7906 91.7159C64.7756 92.0984 64.4644 92.3909 64.0893 92.3909Z" fill="#2C3E50"/>
</g>
<g id="Group_6">
<path id="Vector_10" d="M68.4577 87.6318H62.0336C61.6511 87.6318 61.336 87.3243 61.3285 86.9418L61.1973 81.0165C61.1898 80.6265 61.4973 80.3039 61.8873 80.2964C62.2773 80.2852 62.5999 80.5965 62.6074 80.9865L62.7236 86.218H68.4577C68.8477 86.218 69.1627 86.533 69.1627 86.923C69.1627 87.3168 68.8477 87.6318 68.4577 87.6318Z" fill="#2C3E50"/>
</g>
</g>
</g>
</g>
</g>
</g>
</svg>
