<svg width="112" height="142" viewBox="0 0 112 142" fill="none" xmlns="http://www.w3.org/2000/svg">
<rect x="39" y="52" width="36" height="24" fill="white"/>
<rect x="5" y="52" width="32" height="24" fill="white"/>
<rect x="39" y="26" width="36" height="24" fill="white"/>
<rect x="39" width="36" height="24" fill="white"/>
<rect y="26" width="32" height="24" fill="white"/>
<mask id="mask0_23_393" style="mask-type:alpha" maskUnits="userSpaceOnUse" x="0" y="30" width="112" height="112">
<rect y="30" width="112" height="112" fill="#D9D9D9"/>
</mask>
<g mask="url(#mask0_23_393)">
<path d="M94.6711 104.211C93.9451 103.791 93.0113 103.853 92.1071 104.374C90.5377 105.28 89.312 107.405 89.3174 109.21C89.321 110.244 89.7373 111.076 90.4598 111.492C91.1046 111.864 92.0288 111.908 93.039 111.326C94.6022 110.424 95.8233 108.309 95.8189 106.509C95.8153 105.467 95.3972 104.629 94.6711 104.211ZM92.1223 109.738C91.7409 109.957 91.4804 109.962 91.3738 109.903C91.2718 109.844 91.1518 109.626 91.1509 109.204C91.1473 108.055 92.022 106.541 93.0238 105.962C93.3998 105.747 93.6532 105.742 93.7571 105.8C93.8618 105.86 93.9844 106.084 93.9853 106.514C93.988 107.657 93.1178 109.164 92.1223 109.738Z" fill="#2C3E50"/>
<path d="M13.462 95.9577L17.582 98.3138C17.6561 102.094 20.203 106.471 23.4675 108.356C26.6199 110.175 29.6459 109.076 30.211 105.562C32.6862 106.982 21.2446 100.416 54.4183 119.455C54.6391 123.151 57.1134 127.312 60.2757 129.138C63.2958 130.88 66.2446 129.935 66.962 126.717L69.2024 127.998C70.2086 128.602 70.8297 128.443 71.5651 128.149L98.5136 112.493C99.1636 112.108 99.5369 111.35 99.5369 110.416C99.5371 110.228 99.5513 97.5794 99.5504 98.3928C99.5005 97.7067 99.3964 97.6796 94.7598 82.2627C94.4151 81.0371 93.5887 79.9099 92.5914 79.302C92.5628 79.2806 92.5332 79.2609 92.5028 79.2438L92.5037 79.2421L79.485 71.6967L79.5017 64.7637C79.5023 64.3041 79.2069 64.1616 79.0424 63.9732C68.4458 57.7726 53.3273 48.9261 41.7042 42.125C41.4195 41.9594 41.0686 41.9576 40.7803 42.1241L13.5518 57.9486C13.3667 58.1037 13.0746 58.2943 13.0734 58.7457L13.0555 67.6384C13.0546 68.1443 13.4638 68.5561 13.9705 68.557C13.9696 68.557 13.9714 68.557 13.9705 68.557C14.4763 68.557 14.8881 68.1479 14.889 67.642L14.9034 60.3241L27.7216 67.6325L27.5813 83.9333C27.5786 84.2332 27.7227 84.5143 27.9663 84.688C28.2107 84.8626 28.5258 84.9029 28.806 84.8053L32.2994 83.5591L36.107 89.2879C36.3214 89.6112 36.7281 89.776 37.132 89.6594C37.5179 89.5439 37.7838 89.1912 37.7874 88.7883L37.9193 73.4469L50.6963 80.7318L50.6095 115.143L30.2688 103.482C29.8876 99.8033 27.3932 95.9229 24.4201 94.2065C21.2639 92.3834 18.6211 93.5707 17.8273 96.2236C17.8173 96.2569 17.8141 96.2953 17.8047 96.3291L14.8344 94.63L14.8523 82.824C14.8532 82.3173 14.4432 81.9064 13.9374 81.9055C13.9365 81.9055 13.9382 81.9055 13.9374 81.9055C13.4315 81.9055 13.0197 82.3146 13.0188 82.8205L13 95.16C12.9991 95.4894 13.1755 95.7938 13.462 95.9577ZM65.1146 94.6589L53.5032 87.9359L53.4401 87.8993C56.0088 86.4054 44.1349 93.3112 78.5616 73.2885L90.2404 80.0532L65.1146 94.6589ZM77.6515 71.696C43.205 91.7219 55.086 84.8147 52.5155 86.3091L52.5294 80.7375L77.6643 66.3454L77.6515 71.696ZM61.1925 127.55C58.4876 125.989 56.2116 122.045 56.2103 118.929C56.2105 118.92 56.2165 118.914 56.2165 118.905C56.2165 116.165 57.9039 115.179 60.3079 116.584C62.8661 118.051 65.2919 121.866 65.2919 125.231C65.2919 125.234 65.2938 125.236 65.2938 125.238C65.2724 127.98 63.5892 128.931 61.1925 127.55ZM67.1102 124.694C67.1081 124.656 67.0968 124.612 67.0942 124.574C66.8217 120.681 64.1399 116.669 61.2283 114.988C58.3341 113.317 55.2743 114.057 54.5379 117.407L52.4412 116.195L52.5253 89.4902L64.6124 96.5047C65.256 96.8773 65.7639 97.6438 65.9874 98.2855C66.0441 98.4691 70.7484 113.881 70.7683 114.176C70.768 114.364 70.7502 126.847 70.7513 126.081C70.7513 126.667 70.5458 126.664 70.1219 126.412L67.1102 124.694ZM97.5861 110.912L72.5913 125.433C72.6053 114.138 72.6169 114.178 72.5812 113.897C75.1557 112.402 63.2568 119.313 97.75 99.2772L97.7034 110.413C97.7034 110.765 97.604 110.901 97.5861 110.912ZM97.4067 97.3444C62.7072 117.496 74.6751 110.546 72.0861 112.049L67.8022 97.9058C67.6062 97.2486 67.2211 96.5246 66.6677 95.8766L92.0011 81.1503C92.4464 81.5554 92.8242 82.1515 92.9997 82.7766L97.4067 97.3444ZM30.4722 67.0896L55.6953 52.436L62.174 56.2269L37.043 70.8362L30.4722 67.0896ZM41.2395 43.9773L53.8773 51.3721L28.6309 66.0398L15.8336 58.743L41.2395 43.9773ZM35.9798 85.7838L33.4301 81.9476C33.197 81.5967 32.7547 81.451 32.3585 81.5912L29.4264 82.6369L29.5463 68.6729L36.0946 72.4064L35.9798 85.7838ZM38.8846 71.8863L63.9917 57.2906L76.7496 64.7557L51.6171 79.1463L38.8846 71.8863ZM23.5033 95.7947C26.2464 97.3775 28.4987 101.288 28.4882 104.425C28.4808 107.187 26.7885 108.154 24.3843 106.768C21.6743 105.202 19.3913 101.244 19.4003 98.1251C19.4099 95.3892 21.0712 94.3898 23.5033 95.7947Z" fill="#2C3E50"/>
<path d="M13.9523 78.7542C13.9514 78.7542 13.9532 78.7542 13.9523 78.7542C14.4582 78.7542 14.87 78.345 14.8709 77.8392L14.8816 72.2303C14.8825 71.7236 14.4734 71.3127 13.9666 71.3118C13.9658 71.3118 13.9675 71.3118 13.9666 71.3118C13.4608 71.3118 13.049 71.7209 13.0481 72.2267L13.0374 77.8356C13.0365 78.3423 13.4456 78.7533 13.9523 78.7542Z" fill="#2C3E50"/>
<path d="M90.9559 84.6478C90.6953 84.5466 90.4026 84.569 90.1591 84.7086L70.2787 96.2666C69.9116 96.4797 69.7388 96.9175 69.8624 97.3248L73.011 107.729C73.0925 107.996 73.2913 108.213 73.5527 108.316C73.82 108.42 74.1091 108.394 74.3486 108.256L94.2334 96.7089C94.6014 96.4949 94.7742 96.0571 94.6506 95.6498L91.4975 85.2351C91.416 84.9674 91.2164 84.7507 90.9559 84.6478ZM74.43 106.088L71.8275 97.4869L90.0785 86.8761L92.6855 95.4868L74.43 106.088Z" fill="#2C3E50"/>
<path d="M63.9426 97.6552L55.2397 92.6184C54.955 92.4536 54.6076 92.4527 54.3247 92.6157C54.0418 92.7777 53.8654 93.0785 53.8636 93.4053L53.8001 103.064C53.7983 103.394 53.9728 103.699 54.2575 103.864L66.8334 111.148C67.1622 111.338 67.5688 111.305 67.8621 111.073C68.1575 110.839 68.2793 110.449 68.1701 110.089L64.751 98.811C64.5872 98.3212 64.2649 97.8879 63.9426 97.6552ZM55.6372 102.544L55.6864 94.9953L62.896 99.1682C62.9336 99.221 62.9811 99.2998 63.0043 99.3678L65.7412 108.397L55.6372 102.544Z" fill="#2C3E50"/>
<path d="M57.2471 107.222L55.0778 105.966C54.64 105.71 54.0778 105.862 53.8253 106.3C53.5711 106.738 53.7206 107.299 54.1593 107.552L56.3285 108.808C56.7586 109.059 57.3242 108.918 57.581 108.474C57.8353 108.037 57.6857 107.475 57.2471 107.222Z" fill="#2C3E50"/>
<path d="M61.2157 119.192C60.5389 118.801 59.8379 118.716 59.2479 118.952C58.423 119.281 58.0313 120.112 58.0313 121.016C58.0268 122.503 58.9973 124.186 60.2882 124.931C60.9738 125.327 61.7905 125.456 62.4826 125.059C63.1101 124.699 63.4709 123.986 63.4736 123.102C63.4736 121.579 62.4546 119.907 61.2157 119.192ZM61.5774 123.466C61.5461 123.471 61.4208 123.469 61.205 123.343C60.4888 122.93 59.8621 121.845 59.8648 121.018C59.8648 120.913 59.8764 120.817 59.9239 120.657C59.9283 120.655 59.9364 120.654 59.9463 120.654C59.9982 120.654 60.119 120.676 60.2999 120.78C61.0091 121.19 61.6401 122.266 61.6401 123.099C61.6392 123.342 61.581 123.455 61.5774 123.466Z" fill="#2C3E50"/>
<path d="M23.4806 104.149C24.1662 104.545 24.9829 104.674 25.6749 104.277C26.6055 103.742 26.8075 102.584 26.5756 101.503L26.5747 101.5C26.3007 100.242 25.4296 98.9998 24.409 98.4098C23.7331 98.0195 23.0357 97.9353 22.4421 98.169C21.6208 98.4956 21.2236 99.3219 21.2236 100.233C21.2192 101.721 22.1896 103.404 23.4806 104.149ZM23.1163 99.8736C23.1216 99.8727 23.1288 99.8718 23.1395 99.8718C23.1906 99.8718 23.3114 99.8933 23.4923 99.998C24.2216 100.42 24.838 101.518 24.8325 102.317C24.8316 102.56 24.7734 102.673 24.7698 102.684C24.7403 102.689 24.614 102.687 24.3974 102.561C23.6812 102.148 23.0545 101.062 23.0572 100.235C23.0572 100.102 23.076 100.012 23.1163 99.8736Z" fill="#2C3E50"/>
<path d="M80.4782 112.457C79.753 112.04 78.8183 112.099 77.9141 112.62C76.3447 113.526 75.1191 115.65 75.1235 117.456C75.1271 118.491 75.5425 119.322 76.2659 119.738C77.0702 120.203 78.0381 120.037 78.8461 119.572C80.4101 118.67 81.6304 116.554 81.625 114.756C81.6223 113.713 81.2042 112.876 80.4782 112.457ZM77.9293 117.984C77.5479 118.205 77.2856 118.211 77.18 118.149C77.0779 118.09 76.958 117.872 76.9571 117.451C76.9544 116.302 77.83 114.786 78.8309 114.209C79.0205 114.099 79.3798 113.943 79.5632 114.047C79.6679 114.107 79.7906 114.33 79.7915 114.761C79.7951 115.903 78.9249 117.409 77.9293 117.984Z" fill="#2C3E50"/>
<path d="M86.9411 110.061L83.0798 112.304C82.642 112.559 82.4925 113.119 82.7476 113.557C83.0036 113.999 83.5672 114.142 84.0001 113.889L87.8614 111.645C88.2992 111.391 88.4487 110.831 88.1936 110.393C87.9384 109.954 87.3753 109.806 86.9411 110.061Z" fill="#2C3E50"/>
</g>
</svg>
