<svg width="112" height="142" viewBox="0 0 112 142" fill="none" xmlns="http://www.w3.org/2000/svg">
<g id="Group 190">
<g id="Group 190_2">
<path id="Vector" d="M37.8962 44.1318C27.8489 44.1438 18.2166 48.1405 11.1123 55.2452C4.00793 62.3498 0.0116212 71.9822 0 82.0295V86.5364C0 86.9246 0.154215 87.2969 0.428719 87.5714C0.703223 87.8459 1.07553 88.0001 1.46374 88.0001H74.3287C74.7169 88.0001 75.0892 87.8459 75.3637 87.5714C75.6382 87.2969 75.7924 86.9246 75.7924 86.5364V82.0295C75.7808 71.9822 71.7845 62.3498 64.6801 55.2452C57.5758 48.1405 47.9435 44.1438 37.8962 44.1318Z" fill="white"/>
<path id="Vector_2" d="M18.6613 19.235C18.6613 23.0393 19.7894 26.7582 21.9029 29.9214C24.0165 33.0846 27.0206 35.55 30.5353 37.0058C34.0501 38.4617 37.9176 38.8426 41.6488 38.1004C45.38 37.3582 48.8074 35.5263 51.4975 32.8362C54.1875 30.1461 56.0195 26.7188 56.7617 22.9876C57.5038 19.2563 57.1229 15.3888 55.6671 11.8741C54.2112 8.35935 51.7458 5.35525 48.5826 3.24168C45.4195 1.12811 41.7006 0 37.8963 0C32.7966 0.00581114 27.9075 2.03422 24.3015 5.64022C20.6955 9.24622 18.6671 14.1353 18.6613 19.235Z" fill="white"/>
</g>
<g id="Mask group">
<mask id="mask0_23_444" style="mask-type:alpha" maskUnits="userSpaceOnUse" x="0" y="30" width="112" height="112">
<rect id="Rectangle 70" y="30" width="112" height="112" fill="#D9D9D9"/>
</mask>
<g mask="url(#mask0_23_444)">
<g id="Group">
<path id="Vector_3" d="M31.8505 127.301C34.7501 128.975 38.2603 129.775 41.0887 127.987L49.9157 122.599C52.3442 121.195 53.6932 118.313 53.7142 114.483C53.7313 108.101 49.8813 100.36 44.5233 95.866L44.5022 85.2162C44.4742 75.2554 51.5061 63.0787 60.1757 58.0729C62.7366 56.5937 65.1809 55.8935 67.3358 55.9787C68.6108 58.0158 69.1042 60.6834 69.1042 63.0769L69.1154 72.1793C68.798 72.3723 62.703 76.087 62.4222 76.2483C59.9762 77.6559 58.6237 80.5394 58.6132 84.3659C58.5922 91.913 63.9077 101.132 70.4636 104.917C73.2789 106.543 76.6639 107.355 79.4919 105.727C79.6714 105.624 88.8512 100.081 89.4416 99.5882C90.5476 100.452 91.2218 101.731 91.2233 103.169C91.2251 104.829 90.3695 106.319 88.9348 107.153L78.8941 112.989C77.9568 111.88 76.5766 111.161 75.018 111.161C72.1905 111.161 69.8898 113.462 69.8898 116.29C69.8898 119.106 72.1905 121.396 75.018 121.396C77.8349 121.396 80.1252 119.106 80.1252 116.29C80.1252 115.671 79.9985 115.085 79.7975 114.535L89.8341 108.702C91.8287 107.543 93.0185 105.474 93.015 103.167C93.012 101.209 92.1441 99.4313 90.6632 98.2308C91.7407 96.6821 92.3238 94.5973 92.3238 92.1028C92.341 85.5782 88.3832 77.7512 82.8772 73.2779L82.8582 63.0726C82.8372 55.9359 80.3495 50.5986 75.8558 48.0406C75.8544 48.0398 75.8539 48.0385 75.8526 48.0378L69.8932 44.5761C65.7098 42.1817 60.2212 42.5246 54.4368 45.5427C53.9976 45.772 53.8279 46.3126 54.0571 46.7518C54.2846 47.1909 54.827 47.3606 55.2661 47.1314C64.4106 42.3586 69.2847 46.3915 69.5591 46.4534C64.4104 46.4908 59.2016 49.2507 55.1598 52.4427C48.2588 57.8909 42.5561 66.2099 39.4097 74.7272C37.6762 79.4172 36.696 84.2077 36.7075 88.6866C36.7079 88.8659 36.7361 102.069 36.7343 101.227C36.5498 101.12 32.2972 98.648 32.5626 98.8023L32.5451 85.2232C32.5171 74.9055 38.1527 62.245 46.5703 53.7189C46.9185 53.3672 46.915 52.8003 46.5633 52.4521C46.2117 52.1048 45.6448 52.1083 45.2966 52.4609C36.5676 61.3001 30.7237 74.4689 30.7534 85.2267L30.7648 94.4086C28.9673 95.5004 24.3392 98.3277 23.8108 98.6317C21.3648 100.038 20.0106 102.922 20.0001 106.75C19.9791 114.296 25.2945 123.515 31.8505 127.301ZM75.018 119.605C73.1774 119.605 71.6814 118.118 71.6814 116.29C71.6814 114.449 73.1774 112.953 75.018 112.953C76.8464 112.953 78.3336 114.449 78.3336 116.29C78.3336 118.118 76.8464 119.605 75.018 119.605ZM51.9225 114.474C51.905 117.641 50.8745 119.976 49.0006 121.06L44.0526 124.08C44.2744 123.448 44.4463 122.626 44.539 121.958C45.4166 115.737 42.0682 108.356 37.8738 103.648C38.1155 103.582 44.2618 99.9935 44.0823 100.097C44.3605 99.9369 44.5302 99.6404 44.5302 99.3193L44.5282 98.253C48.9039 102.513 51.9365 109.041 51.9225 114.474ZM75.0652 66.5412C75.0655 66.7205 75.0874 79.9003 75.086 79.064L70.9133 76.6578C70.9131 76.4708 70.8956 62.895 70.8958 63.076C70.8958 60.973 70.5255 58.4625 69.6063 56.4029C73.6322 57.8407 75.0535 62.2231 75.0652 66.5412ZM69.118 74.2752L69.1201 75.9706C68.4361 75.731 67.5862 75.534 67.155 75.4697L69.118 74.2752ZM71.3595 103.365C65.2987 99.8661 60.3839 91.3452 60.4049 84.3711C60.4136 81.2095 61.4477 78.8763 63.3163 77.8012C69.5912 74.181 82.3758 86.6053 81.4503 98.8207C81.1689 101.742 79.8811 103.436 78.5978 104.175C76.7134 105.259 74.1432 104.973 71.3595 103.365ZM90.5322 92.0976C90.5322 92.0985 90.5322 92.0993 90.5322 92.1002C90.5322 95.254 89.5069 97.5871 87.6295 98.6807L82.6517 101.711C83.0826 99.9913 83.2362 99.3152 83.2351 99.0049C83.8199 92.9673 80.5495 85.7616 76.5695 81.3402L82.4365 77.9534C82.7147 77.7933 82.8844 77.4967 82.8844 77.1757L82.8816 75.634C87.3463 79.8638 90.5462 86.6188 90.5322 92.0976ZM81.0666 63.0769C81.0669 63.2573 81.0908 77.5505 81.0893 76.6578L76.8933 79.0698L76.8621 66.5159C76.8621 60.541 74.325 54.7089 67.8671 54.2254C67.8629 54.2254 67.8596 54.2286 67.8553 54.2287C65.2464 54.0109 62.3148 54.7684 59.2798 56.521C50.1151 61.8128 42.6826 74.6876 42.7106 85.2206C42.7109 85.4009 42.7311 99.6959 42.7298 98.8032L38.5318 101.215C38.5313 101.036 38.5007 87.8396 38.5027 88.6814C38.4895 84.1909 39.5293 79.3772 41.3326 74.6855C44.5848 66.2288 50.1264 58.715 56.1495 53.9346C59.9562 50.915 65.1881 48.1018 70.0493 48.2531C71.8428 48.31 73.4973 48.7547 74.962 49.5923C78.8795 51.8188 81.0491 56.6076 81.0666 63.0769ZM30.7622 96.5076V98.4349C30.3395 98.2738 29.1157 97.9267 28.5681 97.8426L30.7622 96.5076ZM24.6677 100.21C24.6762 100.206 24.686 100.206 24.6944 100.201C31.6183 96.1395 44.6421 110.896 42.7223 122.049C42.4092 123.853 41.5714 125.646 39.9846 126.559C38.1003 127.646 35.5283 127.355 32.7463 125.749C26.6855 122.249 21.7707 113.729 21.7917 106.755C21.8003 103.615 22.8221 101.296 24.6677 100.21Z" fill="#2C3E50"/>
<path id="Vector_4" d="M37.1239 121.627C38.5691 120.796 39.3687 119.121 39.3739 116.91C39.3879 112.672 36.5045 107.68 32.8092 105.546C30.8793 104.432 29.0177 104.28 27.5655 105.115C26.122 105.946 25.3224 107.619 25.3172 109.823C25.3032 114.069 28.1831 119.063 31.8732 121.193C33.5197 122.144 35.4691 122.579 37.1239 121.627ZM27.1088 109.829C27.1123 108.29 27.5935 107.167 28.4596 106.669C29.5074 106.063 30.8599 106.49 31.9134 107.098C34.998 108.878 37.5928 113.37 37.5823 116.905C37.5788 118.45 37.0976 119.576 36.2298 120.075C35.355 120.579 34.1267 120.425 32.769 119.641C29.6896 117.864 27.0983 113.37 27.1088 109.829Z" fill="#2C3E50"/>
<path id="Vector_5" d="M71.4216 83.1622C69.4953 82.0494 67.6301 81.8972 66.1814 82.7309C64.7362 83.562 63.9366 85.2338 63.9296 87.4392C63.9174 91.6865 66.799 96.68 70.4873 98.8093C72.1339 99.7595 74.0832 100.195 75.738 99.2433C77.1832 98.4122 77.9828 96.7369 77.9881 94.5271C78.0021 90.2876 75.1169 85.295 71.4216 83.1622ZM74.844 97.6904C73.9709 98.1943 72.7409 98.0412 71.3831 97.2574C68.3037 95.4806 65.7125 90.9866 65.7213 87.4444C65.7265 85.9056 66.2059 84.7832 67.0737 84.2837C68.1285 83.6802 69.4776 84.1093 70.5258 84.7141C73.6105 86.4944 76.2069 90.9858 76.1964 94.5218C76.1929 96.0659 75.7118 97.1918 74.844 97.6904Z" fill="#2C3E50"/>
<path id="Vector_6" d="M50.7619 47.7929C49.9921 48.3362 49.2327 48.918 48.4874 49.533C48.1059 49.8479 48.0517 50.413 48.3666 50.7945C48.6815 51.1764 49.2482 51.2291 49.6281 50.9152C50.3385 50.3282 51.0593 49.7744 51.7942 49.2574C52.1984 48.9722 52.2946 48.4132 52.0112 48.009C51.7242 47.6031 51.1661 47.5104 50.7619 47.7929Z" fill="#2C3E50"/>
</g>
</g>
</g>
</g>
</svg>
