<svg width="112" height="142" viewBox="0 0 112 142" fill="none" xmlns="http://www.w3.org/2000/svg">
<circle cx="40" cy="40" r="40" fill="white"/>
<mask id="mask0_23_379" style="mask-type:alpha" maskUnits="userSpaceOnUse" x="0" y="30" width="112" height="112">
<rect y="30" width="112" height="112" fill="#D9D9D9"/>
</mask>
<g mask="url(#mask0_23_379)">
<path d="M27.0573 104.383C27.584 104.381 28.0109 103.953 28.0091 103.426L27.996 98.8321C27.9941 98.3064 27.5672 97.8804 27.0415 97.8804C26.43 97.8878 26.0851 98.3092 26.0869 98.8377L26.1 103.431C26.1018 103.957 26.5288 104.383 27.0545 104.383H27.0573Z" fill="#2C3E50"/>
<path d="M86.3181 103.763L86.1597 47.7109C86.1588 47.3869 85.9104 47.1541 85.6795 46.8854L74.0545 40.1296C73.7571 39.9571 73.3926 39.9571 73.0971 40.1277L66.2702 44.0693C65.6521 43.5791 65.017 43.1344 64.3655 42.7583C61.4198 41.0571 58.5944 40.8101 56.4177 42.0638C54.2486 43.312 53.0479 45.8615 53.0386 49.2425C53.0364 49.9973 53.1131 50.7911 53.2315 51.5974L45.6642 55.9664C45.0462 55.4763 44.4112 55.0318 43.7598 54.6556C40.8141 52.9544 37.9915 52.7074 35.813 53.9602C33.6429 55.2093 32.4422 57.7588 32.4329 61.1389C32.4307 61.8938 32.5075 62.6876 32.6259 63.4943L26.4773 67.0442C26.1789 67.217 26.0009 67.5349 26 67.8701L26.0005 67.872L26 67.8738L26.0727 93.5683C26.0746 94.0949 26.4335 94.5601 27.0301 94.52C27.5567 94.5181 27.9837 94.0903 27.9818 93.5627L27.9138 69.5325L37.6311 75.1802C37.8369 147.447 37.7286 109.429 37.7844 129.021L28.0657 123.374L28.0247 108.889C28.0228 108.364 27.5959 107.938 27.0701 107.938H27.0673C26.5407 107.94 26.1137 108.367 26.1156 108.895L26.1585 123.926C26.1594 124.266 26.3402 124.579 26.6339 124.749L38.2646 131.507L38.2674 131.51C38.4147 131.594 38.5797 131.636 38.7437 131.636C38.9087 131.636 39.0737 131.593 39.221 131.509L85.8409 104.593C86.1373 104.422 86.3191 104.106 86.3181 103.763ZM66.0344 46.4096C68.3694 48.5478 70.3095 51.4561 71.499 54.5245L52.5644 65.4565C51.3333 62.4204 49.4338 59.5261 47.1684 57.3024L66.0344 46.4096ZM39.5408 75.1804L51.5229 68.2626C51.7476 69.0633 51.9103 69.8587 52.0151 70.6467C47.9916 72.8722 44.9012 80.6342 48.7674 82.8604C50.0416 83.5919 51.5956 83.296 52.8876 82.55C55.644 80.9578 57.7964 77.2282 57.788 74.0588C57.7834 72.3445 57.1514 71.0386 56.0095 70.3814C55.3765 70.0171 54.6459 69.9105 53.8714 70.0117C53.7273 69.1085 53.5055 68.1938 53.2228 67.2811L72.1294 56.3653C72.3542 57.1662 72.5172 57.9617 72.6218 58.75C68.5909 60.9713 65.5137 68.7412 69.3731 70.9631C70.6486 71.6978 72.2037 71.3973 73.4933 70.6527C76.2507 69.0605 78.4031 65.3309 78.3937 62.1615C78.3891 60.4482 77.758 59.1431 76.6161 58.4859C75.9828 58.1213 75.2524 58.0146 74.4781 58.1156C74.3339 57.2121 74.112 56.2971 73.8292 55.384L84.2543 49.3652L84.3028 68.9841L39.5964 94.795L39.5408 75.1804ZM54.0524 71.9246C54.2442 71.8952 54.5976 71.772 55.0568 72.036C55.576 72.3352 55.8762 73.0744 55.879 74.0644C55.8855 76.5291 54.0789 79.6574 51.9331 80.8963C51.0596 81.3997 50.2533 81.5134 49.7201 81.2058C49.4239 81.0352 49.2087 80.7145 49.0687 80.301C52.7571 79.4694 54.2052 75.7659 54.0524 71.9246ZM48.963 78.3656C49.2535 76.3563 50.5444 74.1198 52.1494 72.8452C52.0626 75.7874 50.9072 77.7672 48.963 78.3656ZM74.659 60.0282C74.8511 59.9987 75.2039 59.8754 75.6634 60.1405C76.1826 60.4388 76.4818 61.178 76.4846 62.1671C76.4921 64.6308 74.6846 67.7601 72.5388 68.999C71.6672 69.5023 70.8599 69.6161 70.3258 69.3085C70.0303 69.138 69.8154 68.8177 69.6755 68.4044C73.3551 67.5736 74.8124 63.8759 74.659 60.0282ZM69.5694 66.4688C69.8592 64.4596 71.1504 62.2228 72.756 60.9483C72.6683 63.8907 71.5132 65.8701 69.5694 66.4688ZM73.5725 42.0573L83.3006 47.7109L73.1708 53.5594C71.9395 50.5232 70.0395 47.629 67.7741 45.4052L73.5725 42.0573ZM54.9477 49.2481C54.9552 46.5765 55.8156 44.6133 57.3704 43.7184C58.9337 42.8189 61.0786 43.0669 63.4109 44.412C63.7634 44.6155 64.0976 44.8846 64.44 45.126L55.0119 50.5694C54.9682 50.118 54.9463 49.6763 54.9477 49.2481ZM34.342 61.1445C34.3495 58.4738 35.2099 56.5097 36.7647 55.6148C38.3261 54.719 40.4739 54.9632 42.8052 56.3093C43.1577 56.5127 43.4918 56.7816 43.8341 57.023L34.4063 62.4663C34.3625 62.0147 34.3406 61.5728 34.342 61.1445ZM45.4287 58.3068C47.7632 60.4448 49.7031 63.3533 50.8925 66.4217L38.5857 73.527C38.3891 73.4127 28.3815 67.5963 28.859 67.8738L45.4287 58.3068ZM39.6936 129.031L39.6027 96.9956L84.3168 71.18L84.4072 103.216L39.6936 129.031Z" fill="#2C3E50"/>
<path d="M52.8711 94.6739C52.5756 94.5033 52.2111 94.5061 51.9175 94.6748L44.8758 98.74C44.5794 98.9116 44.3976 99.2276 44.3986 99.5697L44.4191 106.782C44.42 107.122 44.6027 107.436 44.8973 107.607C45.1876 107.774 45.5521 107.778 45.8509 107.606L52.8925 103.541C53.189 103.369 53.3707 103.053 53.3698 102.711L53.3493 95.4989C53.3484 95.1586 53.1657 94.8445 52.8711 94.6739ZM46.3235 105.128L46.3095 100.117L51.4449 97.1525L51.4588 102.164L46.3235 105.128Z" fill="#2C3E50"/>
<path d="M52.8711 108.065C52.5756 107.894 52.2111 107.897 51.9175 108.065L44.8758 112.131C44.5794 112.302 44.3976 112.618 44.3986 112.96L44.4191 120.173C44.42 120.513 44.6027 120.827 44.8973 120.997C45.1876 121.165 45.5521 121.169 45.8509 120.997L52.8925 116.93C53.189 116.759 53.3707 116.443 53.3698 116.101L53.3493 108.889C53.3484 108.549 53.1657 108.235 52.8711 108.065ZM46.3235 118.519L46.3095 113.507L51.4449 110.543L51.4588 115.554L46.3235 118.519Z" fill="#2C3E50"/>
<path d="M65.9911 87.0989C65.6956 86.9284 65.3311 86.9312 65.0375 87.0999L57.9958 91.1651C57.6994 91.3366 57.5176 91.6526 57.5186 91.9947L57.5391 99.2069C57.54 99.5472 57.7227 99.8613 58.0173 100.032C58.3076 100.199 58.6721 100.203 58.9709 100.031L66.0125 95.9658C66.309 95.7943 66.4907 95.4783 66.4898 95.1361L66.4693 87.9239C66.4684 87.5837 66.2856 87.2695 65.9911 87.0989ZM59.4435 97.5533L59.4295 92.5419L64.5649 89.5776L64.5788 94.589L59.4435 97.5533Z" fill="#2C3E50"/>
<path d="M65.9911 100.49C65.6956 100.319 65.3311 100.322 65.0375 100.491L57.9958 104.556C57.6994 104.727 57.5176 105.043 57.5186 105.385L57.5391 112.598C57.54 112.938 57.7227 113.252 58.0173 113.423C58.3076 113.59 58.6721 113.594 58.9709 113.422L66.0125 109.355C66.309 109.184 66.4907 108.868 66.4898 108.526L66.4693 101.315C66.4684 100.974 66.2856 100.66 65.9911 100.49ZM59.4435 110.944L59.4295 105.933L64.5649 102.968L64.5788 107.979L59.4435 110.944Z" fill="#2C3E50"/>
<path d="M71.1379 92.457C71.4282 92.6242 71.7927 92.6281 72.0915 92.456L79.1331 88.3908C79.4296 88.2193 79.6113 87.9033 79.6104 87.5612L79.5899 80.349C79.589 80.0087 79.4063 79.6946 79.1117 79.524C78.8162 79.3534 78.4517 79.3562 78.1581 79.5249L71.1164 83.5901C70.82 83.7617 70.6382 84.0777 70.6392 84.4198L70.6597 91.632C70.6606 91.9722 70.8433 92.2864 71.1379 92.457ZM77.6855 82.0026L77.6994 87.014L72.5641 89.9783L72.5501 84.967L77.6855 82.0026Z" fill="#2C3E50"/>
<path d="M79.1117 92.9149C78.8162 92.7443 78.4517 92.7471 78.1581 92.9158L71.1164 96.981C70.82 97.1525 70.6382 97.4685 70.6392 97.8106L70.6597 105.023C70.6606 105.363 70.8433 105.677 71.1379 105.848C71.4282 106.015 71.7927 106.019 72.0915 105.847L79.1331 101.781C79.4296 101.609 79.6113 101.293 79.6104 100.951L79.5899 93.7398C79.589 93.3996 79.4063 93.0855 79.1117 92.9149ZM72.5641 103.369L72.5501 98.3578L77.6855 95.3935L77.6994 100.404L72.5641 103.369Z" fill="#2C3E50"/>
</g>
</svg>
