<svg width="112" height="142" viewBox="0 0 112 142" fill="none" xmlns="http://www.w3.org/2000/svg">
<g id="Group 192">
<g id="Group">
<g id="Group_2">
<path id="Vector" d="M5.25662 94.7467L49.5566 77.7467C52.9566 76.4467 52.8566 71.6467 49.4566 70.4467L37.5566 66.2467C52.3566 54.7467 70.1566 34.7467 72.2566 3.94674C72.4566 1.14674 69.5566 -0.753261 67.0566 0.646739L53.5566 7.94674C52.5566 8.54674 51.2566 8.54674 50.2566 7.94674L36.6566 0.446739C34.3566 -0.853261 31.5566 0.846739 31.4566 3.44674C30.8566 28.0467 26.7566 43.7467 22.1566 53.6467L15.5566 42.4467C13.7566 39.3467 9.05663 40.1467 8.35663 43.7467L0.056624 90.4467C-0.443376 93.4467 2.45662 95.8467 5.25662 94.7467Z" fill="white"/>
</g>
</g>
<g id="Mask group">
<mask id="mask0_23_434" style="mask-type:alpha" maskUnits="userSpaceOnUse" x="0" y="30" width="112" height="112">
<rect id="Rectangle 70" y="30" width="112" height="112" fill="#D9D9D9"/>
</mask>
<g mask="url(#mask0_23_434)">
<g id="Group_3">
<path id="Vector_2" d="M46.049 126.869C45.5715 126.591 44.9592 126.751 44.6819 127.231C44.4036 127.708 44.5667 128.32 45.0432 128.597L54.1068 133.864C54.1065 133.864 54.1072 133.865 54.1068 133.864C54.1079 133.865 54.1096 133.867 54.1107 133.867C54.265 133.956 54.4379 134 54.6097 134C54.7826 134 54.9554 133.955 55.1097 133.866L84.5855 116.849C84.896 116.67 85.0865 116.339 85.0855 115.98L84.9888 82.0985C84.9878 81.742 84.7964 81.413 84.4879 81.2343C84.4757 81.2273 84.4609 81.2302 84.4485 81.2238L65.8494 70.4063C68.5339 62.701 71.0623 54.4871 71.0516 50.8776C71.041 47.1174 69.716 44.2801 67.3242 42.8712C67.314 42.8648 67.3085 42.8542 67.298 42.8481C67.2941 42.8461 67.2902 42.8442 67.2873 42.8422L60.4959 38.8992C58.0469 37.4755 54.8773 37.7499 51.5729 39.6687C45.1369 43.39 39.9167 52.4322 39.9362 59.826C39.945 63.0826 42.017 67.688 44.4026 71.9225L26.5177 82.2577C26.5122 82.2608 26.5055 82.2593 26.5 82.2625C26.1894 82.4422 25.999 82.7732 26 83.1316L26.0957 117.014C26.0967 117.37 26.2861 117.698 26.5937 117.875L31.1304 120.511C31.6069 120.786 32.2192 120.625 32.4965 120.149C32.7748 119.671 32.6117 119.06 32.1342 118.783L28.0936 116.435L28.0047 84.8687C62.9653 105.206 50.9075 98.1919 53.5158 99.7093L53.6049 131.26L46.049 126.869ZM45.4055 73.6705C47.2208 76.7159 49.6826 80.3719 51.3844 82.6492C51.4655 82.7566 51.567 82.8464 51.6832 82.9138C52.3808 83.3183 49.1568 81.4475 58.5062 86.8687C59.0732 87.1696 59.7097 86.8374 59.9001 86.3639C59.9015 86.3608 59.9049 86.3591 59.9061 86.3559C60.237 85.5201 60.8095 84.0609 61.5149 82.2217L71.6111 88.0881C71.3973 88.2117 64.3495 92.2855 64.7965 92.0271L39.283 77.1936L45.4055 73.6705ZM72.9362 100.802L66.0911 104.754L65.8111 93.7601C66.012 93.644 73.1089 89.5412 72.6561 89.803L72.9362 100.802ZM55.6047 131.271C55.5279 103.97 55.5947 127.695 55.5159 99.6994L63.8392 94.8936L64.1343 106.486C64.144 106.838 64.3374 107.161 64.645 107.332C64.9612 107.509 65.3349 107.499 65.6341 107.327L74.4507 102.236C74.7681 102.053 74.9594 101.711 74.9507 101.345L74.6281 88.6644L82.9939 83.834L83.0837 115.407L55.6047 131.271ZM81.9841 82.1041L73.6112 86.9381L62.2365 80.3293C62.2588 80.2695 62.2815 80.2087 62.3041 80.1483C63.1746 77.8459 64.1698 75.1606 65.1759 72.3281L81.9841 82.1041ZM69.0518 50.8835C69.0611 54.147 66.5642 62.2912 63.6818 70.5184C63.6817 70.5188 63.6819 70.5181 63.6818 70.5184C62.2435 74.6101 60.458 79.4512 58.7126 83.9249C55.586 79.5398 48.7372 69.0815 48.7226 63.77C48.7031 57.0013 53.5161 48.7256 59.3573 45.3528C61.4696 44.1323 64.1789 43.3619 66.2786 44.5711C68.0585 45.5988 69.043 47.8398 69.0518 50.8835ZM52.5757 41.398C55.2327 39.8552 57.6856 39.5769 59.4921 40.6286L62.0924 42.1382C61.8897 42.205 60.279 42.5083 58.3565 43.6185C51.9935 47.2981 46.6991 56.3146 46.7198 63.7759C46.7343 69.2097 52.4326 78.2972 55.4925 82.8064L52.8706 81.2792C49.5352 76.781 41.9515 65.4622 41.9361 59.8202C41.9185 53.0649 46.6905 44.802 52.5757 41.398ZM37.2854 78.3453L62.8001 93.1797L54.5155 97.9627C51.9066 96.4464 63.9663 103.456 29.0007 83.1325L37.2854 78.3453Z" fill="#2C3E50"/>
<path id="Vector_3" d="M36.4961 121.318C36.0215 121.04 35.4083 121.201 35.13 121.68C34.8517 122.156 35.0148 122.769 35.4923 123.046L40.3034 125.842C40.775 126.117 41.39 125.962 41.6695 125.479C41.9478 125.002 41.7847 124.391 41.3072 124.113L36.4961 121.318Z" fill="#2C3E50"/>
<path id="Vector_4" d="M58.376 50.1803C55.0589 52.0942 52.4693 56.5811 52.48 60.3943C52.4921 64.5503 55.7171 66.4714 59.411 64.3382C62.7213 62.4273 65.305 57.9501 65.2943 54.1448C65.2822 49.9426 62.0424 48.0627 58.376 50.1803ZM58.4111 62.606C56.1529 63.9153 54.4881 63.1047 54.4798 60.3884C54.471 57.3301 56.713 53.4486 59.3759 51.9126C61.599 50.627 63.2861 51.3833 63.2945 54.1507C63.3033 57.2012 61.0671 61.0729 58.4111 62.606Z" fill="#2C3E50"/>
</g>
</g>
</g>
</g>
</svg>
