<svg width="44" height="56" viewBox="0 0 44 56" fill="none" xmlns="http://www.w3.org/2000/svg">
<g id="Group">
<g id="Group_2">
<path id="Vector" d="M22.1091 35.9258C14.0835 35.9258 7.57052 29.4952 7.57052 21.5573C7.57052 13.605 14.0835 7.17912 22.1091 7.17912C30.1416 7.17912 36.6465 13.605 36.6465 21.5573C36.6465 29.4952 30.1416 35.9258 22.1091 35.9258ZM22.1091 0C10.0778 0 0.321411 9.65069 0.321411 21.5573C0.321411 33.4547 10.0778 43.1024 22.1091 43.1024C34.1455 43.1024 43.9172 33.4547 43.9172 21.5573C43.9172 9.65069 34.1455 0 22.1091 0Z" fill="#2C3E50"/>
<path id="Vector_2" d="M22.1091 14.1703C17.9851 14.1703 14.6436 17.4667 14.6436 21.5574C14.6436 25.6346 17.9849 28.9408 22.1091 28.9408C26.237 28.9408 29.5858 25.6345 29.5858 21.5574C29.5858 17.4668 26.237 14.1703 22.1091 14.1703Z" fill="#2C3E50"/>
<path id="Vector_3" d="M2.40308 48.7237H0V47.2571H6.56946V48.7237H4.16638V55.1871H2.40308V48.7237Z" fill="#2C3E50"/>
<path id="Vector_4" d="M5.80591 55.1871H7.59073L8.22014 53.4207H11.2187L11.8254 55.1871H13.6556L10.657 47.2571H8.84933L5.80591 55.1871ZM9.72512 49.2111H9.7472L10.7575 52.1214H8.68135L9.72512 49.2111Z" fill="#2C3E50"/>
<path id="Vector_5" d="M14.351 55.1871H16.115V52.0887H17.8771C18.7652 52.0887 19.0902 52.4549 19.2134 53.2874C19.3044 53.9206 19.2815 54.6871 19.4951 55.1872H21.2573C20.9432 54.7432 20.9548 53.809 20.9206 53.3095C20.8642 52.5087 20.6182 51.6767 19.7527 51.4547V51.4328C20.641 51.0776 21.0225 50.3788 21.0225 49.4446C21.0225 48.2461 20.1121 47.2576 18.675 47.2576H14.3511L14.351 55.1871ZM16.115 48.6121H18.047C18.8319 48.6121 19.2589 48.9454 19.2589 49.7109C19.2589 50.5101 18.8319 50.8439 18.047 50.8439H16.115V48.6121Z" fill="#2C3E50"/>
<path id="Vector_6" d="M28.0292 54.2885C27.4109 55.0781 26.6038 55.379 25.8285 55.379C23.3471 55.379 21.8867 53.5436 21.8867 51.2556C21.8867 48.9023 23.347 47.0707 25.8285 47.0707C27.4676 47.0707 29.018 48.0701 29.2094 49.8678H27.5239C27.3214 48.9896 26.659 48.5359 25.8285 48.5359C24.2448 48.5359 23.6488 49.8678 23.6488 51.2556C23.6488 52.5779 24.2448 53.91 25.8285 53.91C26.9743 53.91 27.6355 53.2996 27.7371 52.1994H25.9635V50.9015H29.3319V55.1885H28.208L28.0292 54.2885Z" fill="#2C3E50"/>
<path id="Vector_7" d="M30.5338 47.2571H36.5287V48.7237H32.2968V50.4221H36.1816V51.7782H32.2968V53.7205H36.6196V55.1871H30.5338V47.2571Z" fill="#2C3E50"/>
<path id="Vector_8" d="M39.809 48.7237H37.4058V47.2571H43.9761V48.7237H41.5717V55.1871H39.809V48.7237Z" fill="#2C3E50"/>
</g>
</g>
</svg>
