<svg width="87" height="48" viewBox="0 0 87 48" fill="none" xmlns="http://www.w3.org/2000/svg">
<g id="Kroger_Logo_11-6-19 1" clip-path="url(#clip0_23_195)">
<path id="Vector" d="M23.3308 20.0362V17.7839H19.2399V31.5944H23.4311V23.9409C24.1493 22.3419 25.3611 21.5421 27.0665 21.5416C27.564 21.5392 28.0605 21.5885 28.5479 21.6887V17.7228C28.1883 17.5923 27.7515 17.527 27.2376 17.527C25.8162 17.527 24.514 18.3634 23.3308 20.0362Z" fill="#2C3E50"/>
<path id="Vector_2" d="M41.9536 29.7715C43.3044 28.3973 43.9798 26.6979 43.9798 24.6733C43.9798 22.6657 43.3044 20.9722 41.9536 19.593C40.6028 18.2138 38.9256 17.5242 36.922 17.5242C34.9185 17.5242 33.2436 18.217 31.8974 19.6026C30.5511 20.9882 29.8778 22.6785 29.8773 24.6733C29.8773 26.6682 30.5507 28.3602 31.8974 29.7495C33.2441 31.1388 34.9189 31.8337 36.922 31.8342C38.9256 31.836 40.6028 31.1484 41.9536 29.7715ZM34.7069 27.0589C34.1315 26.4112 33.8439 25.6169 33.8439 24.6761C33.8439 23.7513 34.1315 22.9632 34.7069 22.3118C35.2822 21.6604 36.0208 21.3345 36.9227 21.3341C37.8242 21.3341 38.5649 21.66 39.1448 22.3118C39.7247 22.9636 40.0144 23.7517 40.0139 24.6761C40.0139 25.6091 39.7242 26.4014 39.1448 27.0527C38.5653 27.7041 37.8246 28.0298 36.9227 28.0298C36.0208 28.0298 35.2822 27.7061 34.7069 27.0589Z" fill="#2C3E50"/>
<path id="Vector_3" d="M68.4113 17.527C66.4692 17.527 64.8247 18.2044 63.478 19.5594C62.1314 20.9143 61.458 22.6199 61.458 24.6761C61.458 26.7832 62.1027 28.503 63.3922 29.8355C64.6816 31.168 66.3709 31.8351 68.4601 31.837C69.8636 31.837 71.0633 31.575 72.0591 31.0509C73.095 30.4954 74.0235 29.7597 74.8013 28.8784L71.7657 27.1806C70.9824 27.8951 69.9623 28.2524 68.7054 28.2524C66.902 28.2524 65.8412 27.4527 65.5228 25.8531H75.0225C75.0247 25.7405 75.0329 25.6281 75.0472 25.5164C75.0633 25.374 75.0754 25.2434 75.0837 25.1248C75.0919 25.0066 75.096 24.907 75.096 24.8252C75.096 22.8015 74.4717 21.0797 73.223 19.6597C71.9744 18.2397 70.3705 17.5288 68.4113 17.527ZM65.5716 23.3672C65.7754 22.6009 66.1222 22.0095 66.6119 21.5932C67.0872 21.182 67.697 20.9597 68.3255 20.9686C68.9457 20.9686 69.5068 21.2102 70.0088 21.6935C70.5109 22.1767 70.8109 22.7349 70.9089 23.3679L65.5716 23.3672Z" fill="#2C3E50"/>
<path id="Vector_4" d="M84.8567 17.527C83.4368 17.527 82.1352 18.3636 80.952 20.0369V17.7839H76.8632V31.5944H81.0496V23.9409C81.7678 22.3419 82.9796 21.5421 84.685 21.5416C85.1825 21.5392 85.679 21.5885 86.1663 21.6887V17.7228C85.8049 17.5923 85.3684 17.527 84.8567 17.527Z" fill="#2C3E50"/>
<path id="Vector_5" d="M15.2062 15.1785C15.2683 14.7034 15.3055 14.2255 15.3176 13.7466H15.3231C15.3231 8.344 19.7204 3.9487 25.1209 3.9487C30.5214 3.9487 34.9188 8.34606 34.9188 13.7466H38.8675C38.8675 6.16662 32.7009 0 25.1209 0C17.62 0 11.507 6.03951 11.3792 13.5109H11.3723C11.3694 13.9 11.342 14.2885 11.2905 14.6741C11.1098 16.0772 10.5863 18.1 9.11864 19.7675C7.97052 21.073 6.39983 21.9566 4.43201 22.417V13.2423H0.000976562V31.5923H4.4327V26.4508C5.73429 26.2322 7.00051 25.8393 8.19726 25.2828L12.1934 31.5916H17.4942L11.6464 22.8423C11.7949 22.6904 11.9412 22.5358 12.0827 22.3757C14.2093 19.9585 14.9548 17.1291 15.2062 15.1785Z" fill="#2C3E50"/>
<path id="Vector_6" d="M59.6894 35.6304V17.7839H55.6988V18.9596C54.7602 18.0045 53.5729 17.527 52.1369 17.527C50.3656 17.527 48.8311 18.193 47.5334 19.525C46.2358 20.8571 45.5869 22.5091 45.5869 24.481C45.5869 26.4429 46.2511 28.0781 47.5795 29.3868C48.9078 30.6955 50.4258 31.3496 52.1335 31.3491C53.5205 31.3409 54.7243 30.9589 55.7448 30.2031C55.7448 30.2306 55.7448 34.3648 55.7448 35.6311C55.7248 37.8514 54.8287 39.9739 53.2516 41.5368C51.6745 43.0998 49.5439 43.9767 47.3235 43.9767C45.1031 43.9767 42.9726 43.0998 41.3955 41.5368C39.8184 39.9739 38.9223 37.8514 38.9022 35.6311H34.9542C34.9542 42.4518 40.5031 47.9987 47.3218 47.9987C54.0196 47.9987 59.4874 42.6469 59.6825 35.9952H59.6873V35.807C59.6873 35.7472 59.6922 35.6888 59.6922 35.629L59.6894 35.6304ZM54.8729 26.8219C54.3058 27.4476 53.561 27.7605 52.6385 27.7605C51.7325 27.7605 50.9918 27.4476 50.4165 26.8219C49.8411 26.1962 49.5535 25.4175 49.5535 24.4858C49.5535 23.555 49.8411 22.7763 50.4165 22.1497C50.9918 21.5231 51.7325 21.21 52.6385 21.2105C53.5523 21.2105 54.2951 21.5235 54.8667 22.1497C55.4384 22.7759 55.724 23.5546 55.7235 24.4858C55.724 25.417 55.4402 26.1957 54.8722 26.8219H54.8729Z" fill="#2C3E50"/>
<path id="Vector_7" d="M62.7731 42.0629C62.7647 42.4595 62.6012 42.8371 62.3176 43.1147C62.0341 43.3922 61.6531 43.5477 61.2564 43.5477C60.8596 43.5477 60.4786 43.3922 60.1951 43.1147C59.9116 42.8371 59.7481 42.4595 59.7396 42.0629C59.7396 41.2438 60.415 40.5863 61.2608 40.5863C62.1066 40.5863 62.7731 41.2459 62.7731 42.0629ZM60.1175 42.0629C60.1175 42.7197 60.604 43.2419 61.2698 43.2419C61.9177 43.2419 62.3952 42.7197 62.3952 42.0738C62.3952 41.428 61.9184 40.8859 61.2608 40.8859C60.6033 40.8859 60.1182 41.4149 60.1182 42.0629H60.1175ZM61.0265 42.8372H60.683V41.3606C60.8701 41.3278 61.0599 41.3129 61.2499 41.316C61.5288 41.316 61.6552 41.3607 61.7631 41.4239C61.8098 41.4638 61.847 41.5136 61.8719 41.5697C61.8969 41.6258 61.909 41.6868 61.9074 41.7482C61.9074 41.9103 61.7817 42.0361 61.6016 42.0917V42.1096C61.7452 42.1639 61.8263 42.2717 61.8717 42.4696C61.917 42.6943 61.9404 42.7843 61.9795 42.8386H61.6106C61.5652 42.7843 61.5419 42.6496 61.4938 42.4785C61.467 42.3164 61.377 42.2442 61.1873 42.2442H61.0252L61.0265 42.8372ZM61.0355 42.0003H61.1976C61.3866 42.0003 61.5412 41.9371 61.5412 41.7846C61.5412 41.6472 61.4422 41.5592 61.2265 41.5592C61.163 41.5578 61.0996 41.5638 61.0375 41.5771L61.0355 42.0003Z" fill="#2C3E50"/>
</g>
<defs>
<clipPath id="clip0_23_195">
<rect width="86.163" height="48" fill="white"/>
</clipPath>
</defs>
</svg>
