<svg width="126" height="30" viewBox="0 0 126 30" fill="none" xmlns="http://www.w3.org/2000/svg">
<g clip-path="url(#clip0_23_167)">
<path d="M72.5683 15.9647C72.5683 13.002 71.3001 10.3844 67.0109 10.3844C64.8104 10.3844 63.0623 11.0116 62.1146 11.5606L62.8093 13.9374C63.6819 13.39 65.0742 12.9392 66.3883 12.9392C68.5598 12.9361 68.9155 14.1644 68.9155 14.9541V15.1443C64.1756 15.1366 61.1792 16.7744 61.1792 20.1097C61.1792 22.1476 62.7004 24.0583 65.3595 24.0583C66.9818 24.0583 68.3527 23.4035 69.1716 22.37H69.2513C69.2513 22.37 69.7912 24.6288 72.7768 23.7654C72.625 22.8193 72.5683 21.8225 72.5683 20.6111V15.9647ZM69.0321 19.093C69.0321 19.3322 69.0122 19.5806 68.9416 19.7938C68.6686 20.7062 67.7271 21.4698 66.5555 21.4698C65.5665 21.4698 64.7905 20.9101 64.7905 19.737C64.7905 17.9429 66.7717 17.4491 69.0321 17.4614" fill="#2C3E50"/>
<path d="M0 6.35327C0 6.35327 3.09604 19.0197 3.58831 21.0715C4.16795 23.4698 5.20611 24.3562 8.20252 23.7658L10.1377 15.9114C10.6269 13.9654 10.9597 12.57 11.2756 10.5872H11.3292C11.5485 12.5899 11.8644 13.9654 12.2647 15.9175C12.2647 15.9175 13.0544 19.4859 13.4638 21.3552C13.8625 23.2245 14.985 24.4037 17.9247 23.7658L22.5312 6.35327H18.8125L17.2316 13.8857C16.8129 16.0678 16.4326 17.7868 16.1367 19.7865H16.083C15.8162 17.8083 15.4773 16.1598 15.0418 14.0221L13.404 6.35327H9.52437L7.77619 13.8259C7.2778 16.1077 6.81164 17.9371 6.51874 19.8739H6.46815C6.16607 18.0567 5.75664 15.7427 5.32263 13.5468C5.32263 13.5468 4.28447 8.19651 3.918 6.35327" fill="#2C3E50"/>
<path d="M32.8946 15.9647C32.8946 13.002 31.6232 10.3844 27.3341 10.3844C25.1398 10.3844 23.3886 11.0116 22.4409 11.5606L23.1355 13.9374C24.005 13.39 25.3959 12.9392 26.7147 12.9392C28.886 12.9361 29.2418 14.1644 29.2418 14.9541V15.1443C24.5019 15.1366 21.5024 16.7744 21.5024 20.1097C21.5024 22.1476 23.0298 24.0583 25.6765 24.0583C27.3142 24.0583 28.6729 23.4035 29.4918 22.37H29.5745C29.5745 22.37 30.1174 24.6288 33.1 23.7654C32.9467 22.8193 32.8946 21.8225 32.8946 20.6111V15.9647ZM29.3553 19.093C29.3553 19.3322 29.3354 19.5806 29.2679 19.7938C28.9918 20.7062 28.0503 21.4698 26.8757 21.4698C25.8927 21.4698 25.1137 20.9101 25.1137 19.737C25.1137 17.9429 27.0949 17.4491 29.3553 17.4614" fill="#2C3E50"/>
<path d="M34.8242 6.35327V23.7597H38.3634V20.0686V6.35327H34.8242Z" fill="#2C3E50"/>
<path d="M83.4307 6.35327V19.1961C83.4307 20.9688 83.7634 22.2047 84.4795 22.9623C85.1083 23.6263 86.1372 24.0587 87.3624 24.0587C88.4144 24.0587 89.4433 23.8563 89.9295 23.6799L89.8865 20.9151C89.5231 20.9994 89.1075 21.0715 88.537 21.0715C87.3287 21.0715 86.93 20.3063 86.93 18.7146V13.7983H90.0123V10.4722H86.93V6.35327" fill="#2C3E50"/>
<path d="M74.283 10.6864V23.7653H77.9418V17.0671C77.9418 16.7068 77.9647 16.3955 78.0215 16.1072C78.2945 14.6949 79.3663 13.8009 80.9106 13.8009C81.3415 13.8009 81.6343 13.8484 81.9595 13.899V10.4702C81.6865 10.4211 81.5009 10.395 81.1651 10.395C79.7957 10.395 78.2438 11.2645 77.589 13.1583H77.4986V10.6864" fill="#2C3E50"/>
<path d="M40.4187 10.6864V23.7653H43.9839V16.0888C43.9839 15.7284 44.0238 15.3604 44.1511 15.0276C44.441 14.2502 45.1602 13.35 46.3148 13.35C47.7501 13.35 48.4279 14.5615 48.4279 16.3096V23.7653H51.9841V15.9968C51.9841 15.6579 52.0317 15.2423 52.1312 14.9418C52.4165 14.06 53.1955 13.35 54.272 13.35C55.7227 13.35 56.425 14.5354 56.425 16.5964V23.7653H59.978V16.0535C59.978 12.0021 57.917 10.395 55.577 10.395C54.5481 10.395 53.7292 10.648 52.9931 11.1019C52.3705 11.4838 51.8246 12.022 51.3354 12.7259H51.2818C50.719 11.3182 49.3971 10.395 47.6704 10.395C45.4561 10.395 44.4501 11.5129 43.8582 12.4575H43.8045V10.6864" fill="#2C3E50"/>
<path d="M109.16 10.0994C109.86 10.0994 110.448 9.73446 110.525 9.26521L111.218 1.41386C111.218 0.636391 110.303 0 109.16 0C108.012 0 107.102 0.636391 107.102 1.41386L107.802 9.26521C107.875 9.73446 108.461 10.0994 109.16 10.0994Z" fill="#2C3E50"/>
<path d="M104.908 12.5562C105.254 11.9428 105.234 11.262 104.86 10.9584L98.3888 6.43309C97.7157 6.04053 96.7081 6.50823 96.1316 7.49885C95.5565 8.48794 95.673 9.59817 96.3324 9.98307L103.497 13.3046C103.955 13.4763 104.555 13.1573 104.908 12.5501" fill="#2C3E50"/>
<path d="M113.412 12.5497C113.779 13.157 114.378 13.476 114.824 13.3134L121.989 9.98271C122.654 9.59015 122.754 8.49065 122.191 7.50156C121.616 6.51094 120.602 6.04631 119.931 6.4312L113.458 10.9519C113.099 11.2601 113.073 11.944 113.42 12.5559" fill="#2C3E50"/>
<path d="M109.16 19.9067C109.86 19.9067 110.448 20.2717 110.525 20.7409L111.218 28.5923C111.218 29.3698 110.303 30 109.16 30C108.012 30 107.102 29.3698 107.102 28.5923L107.802 20.7409C107.875 20.2717 108.461 19.9067 109.16 19.9067Z" fill="#2C3E50"/>
<path d="M113.412 17.4568C113.779 16.848 114.378 16.5229 114.824 16.6993L121.989 20.0238C122.654 20.4087 122.754 21.5174 122.191 22.508C121.616 23.491 120.602 23.9587 119.931 23.5738L113.458 19.047C113.099 18.7418 113.073 18.061 113.42 17.4568" fill="#2C3E50"/>
<path d="M104.908 17.4501C105.254 18.062 105.234 18.7413 104.86 19.048L98.3888 23.5671C97.7157 23.9597 96.7081 23.4905 96.1316 22.5075C95.5565 21.5184 95.673 20.4082 96.3324 20.0233L103.497 16.6987C103.955 16.5239 104.555 16.846 104.908 17.4501Z" fill="#2C3E50"/>
<path d="M124.085 22.8849H124.174C124.296 22.8849 124.345 22.9232 124.358 23.0198C124.384 23.1272 124.398 23.1992 124.424 23.2299H124.654C124.634 23.2069 124.608 23.1486 124.595 23.0137C124.568 22.8971 124.509 22.8312 124.424 22.8082V22.7867C124.541 22.7607 124.608 22.6825 124.608 22.5859C124.608 22.4984 124.568 22.4356 124.529 22.3957C124.452 22.3589 124.378 22.3298 124.216 22.3298C124.072 22.3298 123.966 22.342 123.882 22.362V23.2299H124.085V22.8849ZM124.092 22.4892L124.196 22.4754C124.319 22.4754 124.384 22.5322 124.384 22.6119C124.384 22.7009 124.296 22.7423 124.182 22.7423H124.092V22.4892ZM124.222 21.9004C123.719 21.9004 123.32 22.293 123.32 22.7745C123.32 23.2682 123.719 23.6608 124.222 23.6608C124.731 23.6608 125.118 23.2682 125.118 22.7745C125.118 22.293 124.731 21.9004 124.222 21.9004ZM124.222 22.0767C124.608 22.0767 124.895 22.3896 124.895 22.7745C124.895 23.1624 124.608 23.4845 124.222 23.4783C123.836 23.4783 123.543 23.1624 123.543 22.7745C123.543 22.3896 123.836 22.0767 124.216 22.0767" fill="#2C3E50"/>
</g>
<defs>
<clipPath id="clip0_23_167">
<rect width="125.117" height="30" fill="white"/>
</clipPath>
</defs>
</svg>
