<svg width="116" height="26" viewBox="0 0 116 26" fill="none" xmlns="http://www.w3.org/2000/svg">
<g id="Publix_Logo 1" clip-path="url(#clip0_23_185)">
<path id="path3277" d="M0 8.38073C0 8.38073 0.0257347 0.744141 9.27285 0.744141C22.5409 0.744141 22.3286 19.826 9.54091 19.826C6.94177 19.826 4.99884 19.1697 3.8065 18.2154V25.8284H0V8.38073ZM9.29644 5.03744C2.83289 5.03744 2.7514 15.2131 9.29644 15.2131C15.8608 15.2131 15.76 5.03744 9.29644 5.03744Z" fill="#2C3E50"/>
<path id="path3279" d="M50.6576 18.1897C50.6576 18.1897 50.6812 25.8284 59.9304 25.8284C73.0977 25.8284 72.5423 6.74661 60.1985 6.74661C57.5994 6.74661 55.6564 7.40283 54.4641 8.35714V0.744141H50.6576V18.1897ZM59.954 21.533C53.4776 21.533 53.4047 11.3573 59.954 11.3573C66.5184 11.3573 66.439 21.533 59.954 21.533Z" fill="#2C3E50"/>
<path id="path3281" d="M25.9807 19.7274L25.985 7.72241H30.3212L30.3469 19.7274C30.3469 19.7274 31.0696 22.2965 34.1534 22.2965C37.1879 22.2965 38.5218 19.7274 38.5218 19.7274L38.5454 7.72241H42.547V19.7274C42.547 19.7274 41.6056 25.9979 34.3486 25.9979C27.0465 25.9979 25.9807 19.7274 25.9807 19.7274Z" fill="#2C3E50"/>
<path id="path3283" d="M76.5182 1.28027H80.8608V25.8284H76.5182V1.28027Z" fill="#2C3E50"/>
<path id="path3285" d="M88.7183 7.81885H93.063V25.8284H88.7183V7.81885Z" fill="#2C3E50"/>
<path id="path3287" d="M93.7536 2.65919C93.7536 4.12818 92.5634 5.31838 91.0944 5.31838C89.6254 5.31838 88.4352 4.12818 88.4352 2.65919C88.4352 1.1902 89.6254 0 91.0944 0C92.5634 0 93.7536 1.1902 93.7536 2.65919Z" fill="#2C3E50"/>
<path id="path3289" d="M105.488 16.592L100.033 7.86816H104.914L107.401 12.2129L109.867 7.86816H114.21L109.844 16.5792L115.227 25.8284H110.918L107.952 20.9475L105.452 25.8284H100.584L105.488 16.592Z" fill="#2C3E50"/>
</g>
<defs>
<clipPath id="clip0_23_185">
<rect width="115.226" height="26" fill="white"/>
</clipPath>
</defs>
</svg>
