<svg width="99" height="35" viewBox="0 0 99 35" fill="none" xmlns="http://www.w3.org/2000/svg">
<g id="Group">
<path id="Vector" d="M93.2267 28.9348C90.476 32.0573 86.8077 33.7686 82.931 33.7686H15.431C11.5498 33.7686 7.88377 32.0573 5.12418 28.9348C2.38011 25.817 0.866211 21.6696 0.866211 17.251C0.866211 8.14963 7.40268 0.740479 15.431 0.740479H82.931C86.8077 0.740479 90.476 2.45413 93.2267 5.58151C95.9708 8.69208 97.4825 12.8491 97.4825 17.251C97.4825 21.6696 95.9708 25.817 93.2267 28.9348Z" fill="white"/>
<path id="Vector_2" d="M92.5401 28.2996C89.8292 31.2254 86.223 32.8431 82.4083 32.8431H16.0056C12.1754 32.8431 8.58016 31.2254 5.87159 28.2996C3.16516 25.3619 1.67124 21.4689 1.67124 17.3214C1.67124 8.75779 8.10139 1.80943 16.0056 1.80943H82.4083C86.223 1.80943 89.8292 3.41273 92.5401 6.34328C95.2398 9.28104 96.7448 13.174 96.7448 17.3214C96.7448 21.4689 95.2398 25.3619 92.5401 28.2996ZM93.7237 5.06637C90.7026 1.79504 86.6862 -0.000244141 82.4083 -0.000244141H16.0056C7.18375 -0.000244141 0 7.75699 0 17.3214C0 21.9441 1.66456 26.3028 4.69677 29.567C7.71573 32.8431 11.7299 34.6504 16.0056 34.6504H82.4083C86.6862 34.6504 90.7026 32.8431 93.7237 29.567C96.7471 26.3028 98.405 21.9441 98.405 17.3214C98.405 12.6844 96.7471 8.34016 93.7237 5.06637Z" fill="#2C3E50"/>
<path id="Vector_3" d="M82.4077 3.35217H16.0027C8.88537 3.35217 3.11792 9.60454 3.11792 17.3185C3.11792 25.0278 8.88537 31.285 16.0027 31.285H82.4077C89.5272 31.285 95.2923 25.0278 95.2923 17.3185C95.2923 9.60454 89.5272 3.35217 82.4077 3.35217Z" fill="#2C3E50"/>
<path id="Vector_4" fill-rule="evenodd" clip-rule="evenodd" d="M97.0663 34.3297C97.9884 34.3297 98.7642 33.564 98.7642 32.5103C98.7642 31.4711 97.9884 30.7103 97.0663 30.7103C96.142 30.7103 95.3618 31.4711 95.3618 32.5103C95.3618 33.564 96.142 34.3297 97.0663 34.3297ZM95.7031 32.5103C95.7031 31.6607 96.3063 30.9959 97.0663 30.9959C97.8288 30.9959 98.4273 31.6606 98.4273 32.5103C98.4273 33.3864 97.8285 34.0297 97.0663 34.0297C96.3061 34.0297 95.7031 33.3867 95.7031 32.5103ZM96.7073 32.6614H97.044L97.5535 33.5638H97.884L97.3475 32.6495C97.6246 32.595 97.8419 32.4358 97.8419 32.0663C97.8419 31.6608 97.6157 31.4711 97.157 31.4711H96.4212V33.564H96.7071L96.7073 32.6614ZM96.7073 32.3804V31.7327H97.1175C97.3148 31.7327 97.5322 31.8021 97.5322 32.047C97.5322 32.3756 97.3148 32.3804 97.0666 32.3804H96.7073Z" fill="#2C3E50"/>
<g id="Group_2">
<path id="Vector_5" d="M13.3992 9.56958H20.7049L20.512 16.6884H24.9606L24.6835 9.6655H31.7986L31.1402 25.4153H25.1512L24.9609 19.9237H20.4302L20.3436 25.3216H14.1439L13.3992 9.56958Z" fill="white"/>
<path id="Vector_6" d="M41.0793 9.76428H59.2836L59.0933 14.1061H48.2035V16.7894H56.0168L55.9213 19.924L48.1036 19.9172V22.6005H58.7252L58.6278 25.5191H41.7423L41.0793 9.76428Z" fill="white"/>
<path id="Vector_7" d="M34.0894 16.8987H38.5712V19.8245H34.178L34.0894 16.8987Z" fill="white"/>
<path id="Vector_8" d="M61.4302 19.9241H65.7302V16.8976H61.4302V19.9241Z" fill="white"/>
<path id="Vector_9" d="M68.9404 25.6217L68.2843 9.76404H82.0245C84.7087 9.76404 86.7523 11.4944 86.7523 14.293C86.7523 17.3796 84.4827 18.4309 83.6781 18.4909L83.6907 18.6154C85.0361 18.9372 85.8606 19.6931 85.8606 21.6204C85.8606 25.415 82.5402 25.6358 80.7715 25.6358L68.9404 25.6217Z" fill="white"/>
</g>
<path id="Vector_10" d="M75.4763 22.76V19.8606H77.9699C78.719 19.8606 79.4594 20.324 79.4594 21.2767C79.4594 22.1984 78.5152 22.76 77.4978 22.76H75.4763Z" fill="#2C3E50"/>
<path id="Vector_11" d="M75.5271 17.171V13.8372H78.0118C79.0093 13.8372 79.9978 14.4495 79.9978 15.5581C79.9978 16.4821 78.8386 17.1974 77.8101 17.171C76.9457 17.1506 75.5271 17.171 75.5271 17.171Z" fill="#2C3E50"/>
</g>
</svg>
